<mxfile host="app.diagrams.net" modified="2022-10-04T10:45:34.941Z" agent="5.0 (Windows NT 10.0; Win64; x64) AppleWebKit/537.36 (KHTML, like Gecko) Chrome/105.0.0.0 Safari/537.36" etag="07NRvzbfLFVWOTLRdyLL" version="20.3.7" type="github">
  <diagram id="C5RBs43oDa-KdzZeNtuy" name="Page-1">
    <mxGraphModel dx="868" dy="460" grid="1" gridSize="10" guides="1" tooltips="1" connect="1" arrows="0" fold="1" page="1" pageScale="1" pageWidth="827" pageHeight="1169" math="0" shadow="0">
      <root>
        <mxCell id="WIyWlLk6GJQsqaUBKTNV-0" />
        <mxCell id="WIyWlLk6GJQsqaUBKTNV-1" parent="WIyWlLk6GJQsqaUBKTNV-0" />
        <mxCell id="lN5tBwyvnFOGWHZZR7Ag-0" value="if (num1 &amp;lt; num2)" style="rhombus;whiteSpace=wrap;html=1;" vertex="1" parent="WIyWlLk6GJQsqaUBKTNV-1">
          <mxGeometry x="354" y="180" width="80" height="80" as="geometry" />
        </mxCell>
        <mxCell id="lN5tBwyvnFOGWHZZR7Ag-6" style="edgeStyle=orthogonalEdgeStyle;rounded=0;orthogonalLoop=1;jettySize=auto;html=1;exitX=0.5;exitY=1;exitDx=0;exitDy=0;entryX=0.5;entryY=0;entryDx=0;entryDy=0;" edge="1" parent="WIyWlLk6GJQsqaUBKTNV-1" source="lN5tBwyvnFOGWHZZR7Ag-1" target="lN5tBwyvnFOGWHZZR7Ag-0">
          <mxGeometry relative="1" as="geometry">
            <mxPoint x="390" y="180" as="targetPoint" />
          </mxGeometry>
        </mxCell>
        <mxCell id="lN5tBwyvnFOGWHZZR7Ag-1" value="num1 = read.nextDouble" style="rounded=1;whiteSpace=wrap;html=1;" vertex="1" parent="WIyWlLk6GJQsqaUBKTNV-1">
          <mxGeometry x="180" y="70" width="120" height="60" as="geometry" />
        </mxCell>
        <mxCell id="lN5tBwyvnFOGWHZZR7Ag-4" style="edgeStyle=orthogonalEdgeStyle;rounded=0;orthogonalLoop=1;jettySize=auto;html=1;exitX=0.5;exitY=1;exitDx=0;exitDy=0;entryX=0.5;entryY=0;entryDx=0;entryDy=0;" edge="1" parent="WIyWlLk6GJQsqaUBKTNV-1" source="lN5tBwyvnFOGWHZZR7Ag-2" target="lN5tBwyvnFOGWHZZR7Ag-0">
          <mxGeometry relative="1" as="geometry" />
        </mxCell>
        <mxCell id="lN5tBwyvnFOGWHZZR7Ag-2" value="num2 = read.nextDouble" style="rounded=1;whiteSpace=wrap;html=1;" vertex="1" parent="WIyWlLk6GJQsqaUBKTNV-1">
          <mxGeometry x="334" y="70" width="120" height="60" as="geometry" />
        </mxCell>
        <mxCell id="lN5tBwyvnFOGWHZZR7Ag-5" style="edgeStyle=orthogonalEdgeStyle;rounded=0;orthogonalLoop=1;jettySize=auto;html=1;exitX=0.5;exitY=1;exitDx=0;exitDy=0;entryX=0.5;entryY=0;entryDx=0;entryDy=0;" edge="1" parent="WIyWlLk6GJQsqaUBKTNV-1" source="lN5tBwyvnFOGWHZZR7Ag-3" target="lN5tBwyvnFOGWHZZR7Ag-0">
          <mxGeometry relative="1" as="geometry" />
        </mxCell>
        <mxCell id="lN5tBwyvnFOGWHZZR7Ag-3" value="num3 = read.nextDouble" style="rounded=1;whiteSpace=wrap;html=1;" vertex="1" parent="WIyWlLk6GJQsqaUBKTNV-1">
          <mxGeometry x="490" y="70" width="120" height="60" as="geometry" />
        </mxCell>
      </root>
    </mxGraphModel>
  </diagram>
</mxfile>
